<svg xmlns="http://www.w3.org/2000/svg" width="266.378" height="195.951" viewBox="0 0 266.378 195.951">
  <g id="グループ_3" data-name="グループ 3" transform="translate(-224.385 -1069.363)">
    <path id="パス_31" data-name="パス 31" d="M1767.724,1062.055c.426-26.284,9.743-68.165,100.618-74.113s123.249,27.021,128.053,64.244-28.981,84.742-121.206,79.383S1767.3,1088.339,1767.724,1062.055Z" transform="translate(-1524.71 107.658)" fill="none" stroke="#99e2b5" stroke-width="1"/>
    <path id="パス_32" data-name="パス 32" d="M.01,57.114C.436,30.83,4.312,6.731,95.187.783S232.908,23.542,237.713,60.766s-40.569,85.329-132.793,79.97S-.416,83.4.01,57.114Z" transform="translate(225 1127.592) rotate(-14)" fill="none" stroke="#99e2b5" stroke-width="1"/>
    <path id="パス_7" data-name="パス 7" d="M1767.724,1062.055c.426-26.284,9.743-68.165,100.618-74.113s123.249,27.021,128.053,64.244-28.981,84.742-121.206,79.383S1767.3,1088.339,1767.724,1062.055Z" transform="translate(-1524.71 107.789)" fill="none" stroke="#99e2b5" stroke-width="1"/>
    <path id="AdobeStock_244455866" d="M.01,57.114C.436,30.83,4.312,6.731,95.187.783S232.908,23.542,237.713,60.766s-40.569,85.329-132.793,79.97S-.416,83.4.01,57.114Z" transform="translate(225 1127.723) rotate(-14)" fill="none" stroke="#99e2b5" stroke-width="1"/>
  </g>
</svg>
