<svg xmlns="http://www.w3.org/2000/svg" width="647.289" height="599.678" viewBox="0 0 647.289 599.678">
  <path id="パス_2" data-name="パス 2" d="M1286.494-.075c25.893,337.247-125.568,508.513-223.025,523.943-41.873,3-56.305-9.688-63.369-27.8s3.854-45.315,25.166-54.369c21.69-7.583,53.114-3.144,63.583,25.261s-4.754,74.932-114.868,103.22a117.154,117.154,0,0,1-18.445,2.24s-10.712.091-16.9-8.086c-7.563-16.016,2.723-26.523,14.2-28.5s21.144,8.138,21.144,18.277-10.042,19.478-21.144,23.413-25.074,17.905-100.1,20.388-192.236.232-210.073,0" transform="translate(-642.658 0.113)" fill="none" stroke="#fcfcfc" stroke-linejoin="round" stroke-width="1"/>
</svg>
