<svg xmlns="http://www.w3.org/2000/svg" width="328.585" height="314.466" viewBox="0 0 328.585 314.466">
  <g id="グループ_22" data-name="グループ 22" transform="translate(-1084.436 -1145.148)">
    <g id="グループ_21" data-name="グループ 21" transform="translate(1084.978 1145.691)">
      <path id="パス_34" data-name="パス 34" d="M3433.368,1528.019c-3.619,61.695-18.451,224.776,14.456,235.025S3721.44,1786.6,3722,1750.173s21.926-229.277-5.381-246.649S3436.987,1466.325,3433.368,1528.019Z" transform="translate(-3414.924 -1473.414)" fill="none" stroke="#e8dca8" stroke-width="1"/>
      <path id="パス_35" data-name="パス 35" d="M6.47,246.094C2.851,184.4-11.982,21.318,20.926,11.069S294.542-12.49,295.1,23.94s21.926,229.277-5.381,246.649S10.089,307.789,6.47,246.094Z" transform="matrix(-0.996, 0.087, -0.087, -0.996, 327.529, 286.922)" fill="none" stroke="#e8dca8" stroke-width="1"/>
    </g>
    <path id="交差_8" data-name="交差 8" d="M20.4,276.949a11.364,11.364,0,0,1-1.4-.54c-.014-.1-.026-.2-.036-.3-1.854-18-12.178-73.964-18.96-128.165C1.272,107.229,4.5,66.52,5.94,41.924c.421-7.177,4.209-13.252,10.616-18.355C41.771,14.77,93.456,4.527,144.972,0c51.714.02,104.1,5.721,129.992,12.289,6.827,4.525,11.123,10.244,12.168,17.358,3.581,24.377,10.341,64.647,15.157,105.1-2.032,54.586-7.44,111.244-7.718,129.332q0,.15-.01.3a11.357,11.357,0,0,1-1.347.66c-14.95,6.131-75.347,16.914-135.669,22.9C96.93,287.231,35.823,281.754,20.4,276.949Z" transform="translate(1097.598 1158.411)" fill="none" stroke="#e8dca8" stroke-width="1"/>
  </g>
</svg>
