<svg id="レイヤー_1" data-name="レイヤー 1" xmlns="http://www.w3.org/2000/svg" viewBox="0 0 344.85 427.71"><defs><style>.cls-1{fill:#fff;}</style></defs><path class="cls-1" d="M482,610.63c-11.86,18-15.53,21.41-36.62,33.82a22,22,0,0,1,2.35,14.31,20.77,20.77,0,0,1-20.17,16.89H386.11c-15.65,0-25.46-14.63-19.57-29.18.12-.29.22-.59.44-1.17-17-6.62-29.72-18.28-39.12-34.24-1.61,1.28-3.18,2.44-4.64,3.72-11.71,10.29-19.44,23.26-24.57,37.76-2.66,7.49-4.44,15.31-6.31,23.06-1.18,4.94-4.78,8.29-10.15,8.43-3.52.1-7,0-10.55,0-9.36,0-18.71,0-28.06,0-7.28,0-11.26-4-11.24-11.29.1-35,3.5-69.57,12.95-103.38,7-25.1,17.09-48.81,32.36-70.1a128.61,128.61,0,0,1,21.9-24A5.79,5.79,0,0,0,301.8,471a405.41,405.41,0,0,1,7.76-48,353.08,353.08,0,0,1,17.22-56.77c.76-1.88,1.72-2.42,3.67-2.41q74.32.07,148.67,0a3.31,3.31,0,0,1,3.65,2.45,343.36,343.36,0,0,1,19.05,65.93c2.42,12.94,4,26,5.95,39.08a5.55,5.55,0,0,0,2.06,3.79C525,488,536.26,503.87,545.47,521.32c12.36,23.44,20,48.49,24.94,74.44A415.42,415.42,0,0,1,577.19,673c0,6.93-4,11-11,11q-18.95,0-37.88,0c-6.55,0-9.93-3-11.18-9.45-3.67-19-10.44-36.72-23-51.77C490.53,618.52,486.22,614.82,482,610.63Zm-77.17-214.9c-16.39,0-30,13.3-30,29.51a29.93,29.93,0,0,0,29.67,30.33c16.37.11,30.08-13.27,30.12-29.4C434.71,409.23,421.55,395.78,404.87,395.73Zm-.07,149.84a24.11,24.11,0,1,0-24.17-24.07A24.27,24.27,0,0,0,404.8,545.57Z" transform="translate(-232.34 -256.37)"/><path class="cls-1" d="M340,337.07c1.68-3.52,3.26-6.9,4.9-10.25,7.93-16.23,16-32.42,26.95-46.87a104.13,104.13,0,0,1,14.38-15.65c12.26-10.67,24.62-10.44,37.16-.09,7.35,6.07,13.11,13.53,18.37,21.38,10.83,16.17,19.29,33.64,27.76,51.48Z" transform="translate(-232.34 -256.37)"/></svg>