<svg xmlns="http://www.w3.org/2000/svg" width="424.133" height="405.832" viewBox="0 0 424.133 405.832">
  <g id="グループ_12" data-name="グループ 12" transform="translate(0.69 0.645)">
    <path id="パス_41" data-name="パス 41" d="M5257.9,1081.7c132.265,1.4,176.495,67.919,179.149,161.978s-38.1,164.5-179.149,154.644-174.484-114.413-164-166.672S5125.632,1080.309,5257.9,1081.7Z" transform="translate(-5053.229 -1038.186)" fill="none" stroke="#6aeeff" stroke-width="1"/>
    <path id="パス_42" data-name="パス 42" d="M165.783.015c132.265,1.4,176.495,67.919,179.149,161.978s-38.1,164.5-179.149,154.644S-8.7,202.223,1.78,149.964,33.518-1.381,165.783.015Z" transform="translate(92.845) rotate(17)" fill="none" stroke="#6aeeff" stroke-width="1"/>
    <path id="交差_7" data-name="交差 7" d="M-4624.334-1958.727a261.847,261.847,0,0,1-34.059-4.555q-5.8-2.012-11.8-4.314c-82.637-31.719-114.092-86.6-119.854-134.717a100.457,100.457,0,0,1,1.708-23.086c3.775-18.825,8.952-43.725,20.21-67.817,9.976-17.084,22.942-36.273,40.521-52.3,23.453-18.2,56.378-30.332,103.273-29.837a333.6,333.6,0,0,1,38.512,2.513q4.045,1.135,8.2,2.453c65.732,20.858,103.407,51.653,120.874,89.207,7.292,20.241,10.865,43.074,11.563,67.806.023.821.043,1.635.06,2.452a243.807,243.807,0,0,1-8.532,47.814c-7.982,29.011-19.508,54.418-35.8,73.9-24.128,19.825-59.518,31.4-109.482,31.4Q-4611.067-1957.806-4624.334-1958.727Z" transform="translate(4829.001 2318.868)" fill="none" stroke="#6aeeff" stroke-width="1"/>
  </g>
</svg>
