<svg xmlns="http://www.w3.org/2000/svg" width="382.666" height="129.804" viewBox="0 0 382.666 129.804">
  <g id="グループ_17" data-name="グループ 17" transform="translate(0.724 -0.081)">
    <path id="パス_49" data-name="パス 49" d="M4779.735,1157.628c-5.71,10.057-12.286,97.232,0,108.166,4.853,4.319,60.81,7.312,127.3,8.174,103.316-5.842,229.207-2.349,235.947-13.9,11.142-19.1,13.292-83.14,0-96.032S4785.445,1147.571,4779.735,1157.628Z" transform="translate(-4772.077 -1148.183)" fill="none" stroke="#6aeeff" stroke-width="1"/>
    <path id="パス_50" data-name="パス 50" d="M7.07,6.14C1.318,16.227-5.614,103.431,6.628,114.3c4.836,4.293,60.79,6.987,127.29,7.494,103.359-6.392,229.256-3.571,236.046-15.161,11.222-19.158,13.634-83.205.392-96.025S12.822-3.946,7.07,6.14Z" transform="matrix(1, -0.017, 0.017, 1, 0, 7.597)" fill="none" stroke="#6aeeff" stroke-width="1"/>
  </g>
</svg>
